<?xml version="1.0" encoding="UTF-8"?>
<svg version="1.1" viewBox="0 0 2048 1931" width="1280" height="1280" xmlns="http://www.w3.org/2000/svg">
<path transform="translate(1110,228)" d="m0 0h603v373l-2 13-2 2v18l-3 10-1 9-1 4h-2v9l-2 6-3-1 2 7-2 6h-2l-1 11h-4l1 4-2 7-3 2-1 7-8 16-8 15-6 9-9 14-8 9-8 10-18 18-14 11-15 11-19 12-20 12-19 10-23 11-10 4h-2l-3 3-6 2-2-1-3 3-9 4-7 2-4 2h-6l-1-1-4 4-5 1-4-2-2 4-9 2h-5l-2-1v3l-6 1-18 1-3 2-36 1-566-1v-345l2-16 1-4v-13l1-14 3-5v-12l2-8 1-1 2-13 2-4v-6l4-8v-6l4-6v-6l7-14 2-6 12-23 9-15 7-10 4-6 11-14 25-25 8-7 7-4 8-6 14-8 8-6 33-18 19-10 14-6 3-2 7 1-1-4 6-1 3 1 1-4 6-1 4 2-1-5 9-1 3-3h7l3 1v-4l12-1 5-3 6-1h8v-3l17-1 3-1zm-203 90m285 81-33 1v2l-14 1-11 1v2l-15 2-4-1-1 3-10 1-1 3-10 1v3l-8 1-14 8-11 7-13 12-8 9-7 11-7 14-3 9-4 9-1 2-1 9-3 15-2 16-1 2-1 27v167l1 1h316l30-1 3-1v-2h9l8-1h4l1-2 3-1h10l4-3 9-1h2l1-4 9-1 5-3 13-6 15-9 12-11 9-10 8-12 8-18 3-7 2-11 2-3 2-16 2-4 1-21 2-24 1-2v-163l-1-1zm467 357m-181 127-1 2h2z" fill="#F51408"/>
<path transform="translate(646,1024)" d="m0 0h593l7 1 1 18v305l-1 39-3 4v20l-1 10-2 2-2 18-3 1 1 4-1 13-1 2-3 2v8l-3 2v5l-3 3-2 11-12 25-10 18-3 5-8 14-7 9-11 12-5 4-7 8-9 9-8 7-8 5-10 10h-4l-1 3-6-1-2 4-9 7-11 6-8 5-12 6-19 10-11 5-6 3-5-1-1 3-6 2-8 4-5 3h-6l-2 3-9 1-4 4v-2l-5 2h-3-3l-2 2-13 1-2 3-13 1-2 3-8 1h-608v-371l4-1 2-13 3-7 2-18 2-4 1-12 3-5 1-9 3-2v-9l2-5h2l-1-6 1-3h2l1-8 4-3v-6l4-6 3-3 1-5h2l2-6 6-11 5-6 4-7 3-3 2-5 12-13 6-10 8-7 4-5 10-7 11-9 11-8 11-7 10-6 16-9 8-5 5-3 5-2 6-5 7-1 2-3 7-2 12-6h3v-2l8-3 1-2 6-1 2 1 4-4 8-1 1-2 11-2 4 2v-4l9-1 2 1v-3l2-1 9-1 2-2 4-1 13-1 1-2zm67 165-1 2-16 1h-24l-1 4h-14l-3 3-10 1h-6l-1 2-6 2-5 1-2 2-5 1-17 9-5 4-5 3-5 4-7 8-10 10-9 15v3l-3 1-1 9-3 5-2 5-1 5-2 9-2 2-1 17-3 6v203l1 5h333l2-2 24-2h5l1-2 7-1h9l2-1v-2l5-1h9l2-3 9-1 3-3 9-1v-2l3-1v-2l9-3 3-3 5-1 9-9v-2h5v-5l3-1v-2l5 1v-6h2v-2h2l4-6 6-12 5-9 2-6 2-3 1-10 3-4 1-13 2-5 1-3 1-35 1-18 1-1v-140l-1-13-3-7z" fill="#98D130"/>
<path transform="translate(1115,1622)" d="m0 0 2 1h-3z" fill="#98D130"/>
<path transform="translate(1112,1624)" d="m0 0 2 1-2 1z" fill="#98D130"/>
<path transform="translate(541,1052)" d="m0 0 1 2-2-1z" fill="#98D130"/>
<path transform="translate(1117,1621)" d="m0 0 2 1z" fill="#98D130"/>
<path transform="translate(994,1683)" d="m0 0" fill="#98D130"/>
<path transform="translate(1016,1676)" d="m0 0" fill="#98D130"/>
<path transform="translate(1022,1673)" d="m0 0" fill="#98D130"/>
<path transform="translate(1027,1670)" d="m0 0" fill="#98D130"/>
<path transform="translate(1028,1669)" d="m0 0" fill="#98D130"/>
<path transform="translate(1024,1439)" d="m0 0" fill="#98D130"/>
<path transform="translate(355,1230)" d="m0 0" fill="#98D130"/>
<path transform="translate(592,1228)" d="m0 0" fill="#98D130"/>
<path transform="translate(593,1227)" d="m0 0" fill="#98D130"/>
<path transform="translate(594,1226)" d="m0 0" fill="#98D130"/>
<path transform="translate(596,1225)" d="m0 0" fill="#98D130"/>
<path transform="translate(597,1224)" d="m0 0" fill="#98D130"/>
<path transform="translate(599,1223)" d="m0 0" fill="#98D130"/>
<path transform="translate(600,1222)" d="m0 0" fill="#98D130"/>
<path transform="translate(609,1216)" d="m0 0" fill="#98D130"/>
<path transform="translate(611,1215)" d="m0 0" fill="#98D130"/>
<path transform="translate(369,1199)" d="m0 0" fill="#98D130"/>
<path transform="translate(392,1160)" d="m0 0" fill="#98D130"/>
<path transform="translate(394,1158)" d="m0 0" fill="#98D130"/>
</svg>
