<?xml version="1.0" encoding="UTF-8"?>
<svg version="1.1" viewBox="0 0 2048 817" width="1280" height="1280" xmlns="http://www.w3.org/2000/svg">
<path transform="translate(219,156)" d="m0 0h15l21 3 22 7 19 10 13 10 13 13 13 18 8 17 5 18 2 9 1 11v18l-4 23-6 17-6 12-9 14-12 13-8 7-11 8-11 6-16 7-14 4-12 2h-29l-17-3-13-4-9-4-15-8-10-7-2-1-1 118-3 4-8 1-10-4-5-4-2-1v-3l-4-2-6-10-3-7-2-13 1-189 2-13 5-18 8-16 6-10 7-9 8-10 20-15 6-4 7-3 13-5 13-4zm-4 42-11 2-10 4-14 8-12 10-8 11-8 14-4 13-2 13v14l3 16 5 13 7 12 9 10 11 10 15 8 13 4 4 1h27l13-3 12-5 9-5v-2l4-2 5-5 8-7 9-16 3-5 4-16 1-10-1-21-5-17-9-16-9-10-9-8-12-8-15-5-9-2z" fill="#047FFC"/>
<path transform="translate(758,156)" d="m0 0 20 1 15 3 17 5 11 5 13 7 9 7 11 9 14 19 5 10 1 6-2 7-12 3-13-2-10-3-11-7-4-5-13-10-12-8-16-5-9-1h-14l-12 1-16 5-16 9-12 12-6 8-4 9v11l6 5 6 2h21l36 1 78 1 13 3 12 6 9 8 5 9 3 9 1 5v11l-3 14-7 16-9 13-9 10-5 5-10 9-16 10-13 6-17 5-14 3h-28l-15-2-16-5-18-8-4-3-9-5-10-8-12-12-9-13-6-13-1-6 3-5 3-2 12-1 14 2 13 7 7 6 10 10 11 8 15 7 9 2 11 1h12l10-1 16-6 12-6 8-6 5-5 8-9 5-14-1-8-3-3-3-2-31-1-67-1-26-1-17-2-16-6-10-7-5-5-8-15-2-11v-7l2-12 5-13 7-12 10-13 5-5 6-4 4-5 13-9 16-8 13-5 14-3z" fill="#047FFC"/>
<path transform="translate(494,156)" d="m0 0h14l25 4 20 7 14 7 5 4 12 9 10 10 8 10 9 14 5 11 6 19 3 20v17l-3 21-5 17-10 20-4 5-8 11-5 4-6 7-12 9-11 7-10 5-19 6-17 3h-28l-20-4-15-5-16-8v-2l-5-2-5-3-5-4-8-7-9-10-7-10-9-16-5-14-3-9-3-20v-14l2-18 4-16 7-18 7-11 8-11 9-10 9-8 13-9 16-8 15-5 14-3zm-6 42-15 4-12 6-13 9-8 8-10 15-5 11-4 14v29l4 14 5 12 7 10 9 10 5 5 11 7 10 5 14 4 17 2 11-1 24-8 13-9 7-6 9-11 8-14 4-11 2-9 1-12-1-18-6-18-5-10-12-16-17-12-10-5-17-5z" fill="#047FFC"/>
<path transform="translate(1290,156)" d="m0 0h14l22 3 16 5 10 4 15 8 13 10 14 14 11 16 4 7 3 7 6 15 4 25v20l-3 18-3 12-7 17-9 15-9 11-5 5-12 11-13 8-16 8-16 5-15 3h-29l-17-3-13-4-8-3-13-7-10-6-12-11-12-12-9-14-10-21-5-19-1-7v-32l4-20 6-16 7-13 7-10 11-13 10-9 10-7 14-8 11-4 7-3 16-3zm-5 42-15 4-17 9-9 7v2l-4 2-10 13-6 11-5 16-1 7v21l3 16 6 14 8 12 13 13 10 7 12 5 9 3 2 1 17 2 17-2 15-5 11-6 9-6 7-8 8-9 6-10 7-21 1-7v-15l-2-14-6-18-7-10-8-11-7-5-4-4-14-8-15-5-5-1z" fill="#047FFC"/>
<path transform="translate(1020,156)" d="m0 0h13l17 2 15 4 12 4 14 7 15 10 15 14 8 10 10 17 5 11 4 13-1 8-6 3h-17l-12-4-12-12-10-14-7-8-9-8-7-5-15-6-13-3h-24l-16 4-16 8-11 9-9 10-9 16-5 14-2 16 1 19 4 15 9 17 14 15 11 8 10 5 15 5 6 1h19l14-3 15-6 10-6 15-14 7-11 4-6 12-9 11-4h18l5 5v8l-7 18-7 13-8 11-9 11-8 7-13 10-16 8-13 5-12 3-12 2h-28l-18-3-21-7-11-6-11-7-13-11-5-5-7-8-9-14-8-16-5-15-3-22v-16l2-18 4-15 7-17 8-13 8-11 4-5 11-9 10-8 14-8 11-5 17-5z" fill="#047FFC"/>
<path transform="translate(1321,504)" d="m0 0h26l7 9 10 17 4 7 6 9 11 17 6 10 13 21 12 19 4 3 1-112h23v151l-4 2h-20l-5-3-11-18-11-17-4-7-11-18-25-40-4-7v-2l-4-1-1 111-2 2h-19l-2-2-1-4v-108z" fill="#047FFC"/>
<path transform="translate(843,504)" d="m0 0h26l10 16 8 13v3l3 1 9 15 25 40 6 9 7 12v2h2v2h2v-38l1-75h23v151l-2 2h-22l-4-2-9-14-8-13-14-23-9-15v-2l-3-1-12-21-7-11-6-10h-3l-1 111-3 1h-13l-8-1v-150z" fill="#047FFC"/>
<path transform="translate(1e3 504)" d="m0 0h76l12 3 12 6 9 7 7 8 8 14 4 12 2 11v29l-2 12-3 10-9 17-7 8-10 7-10 5-20 4h-68l-2-2v-150zm25 20v113h34l19-4 11-6 7-7 6-12 3-12v-31l-4-15-5-9-6-7-8-5-17-5z" fill="#047FFC"/>
<path transform="translate(397,504)" d="m0 0h75l12 3 12 5 10 8 9 11 7 14 3 8 2 14v27l-5 22-9 17-4 5h-2v2l-13 9-12 5-15 3h-68l-2-1zm26 19-2 6 1 108h34l19-4 11-6 8-8 5-12 3-13v-26l-2-14-8-15-9-8-10-4-11-3z" fill="#047FFC"/>
<path transform="translate(1219,500)" d="m0 0h12l10 2 11 4 12 7 13 12 7 11 6 13 5 20v22l-2 12-6 16-6 11-10 12-12 9-13 6-17 3h-18l-16-4-14-7-10-9-4-4v-2h-2l-9-15-5-14-2-8-1-9v-14l1-11 5-17 7-14 11-13 8-7 10-6 15-5zm-5 20-12 4-10 6-7 7-8 16-2 7-1 8v28l4 14 5 10 9 10 10 7 6 2 14 2 12-2 10-4 9-7 7-8 5-10 5-21v-17l-5-22-7-12-5-5-8-7-13-5-4-1z" fill="#047FFC"/>
<path transform="translate(1479,504)" d="m0 0h108l1 1v19l-1 1h-83v43h75l3 2v17l-5 1-73 1 1 45 84 1 1 1v19l-3 2h-106l-3-2v-150z" fill="#047FFC"/>
<path transform="translate(1659,500)" d="m0 0h18l14 3 9 4 10 6 8 8 6 11 1 4v10l-2 1h-22l-2-7-5-10-7-5-13-4h-15l-10 3-6 4-3 3-2 8 1 10 2 6 5 2 8 4 26 7 12 3 12 4 11 6 5 5 7 9 3 8 1 14-2 9-3 8-8 10-7 6-12 6-20 4h-20l-19-4-15-8-5-5-8-10-4-9-2-9v-7l1-1h22l2 2 4 13 2 5 9 7 11 4 11 1 5 1 2-1h7l10-3 7-5 4-7 1-3v-12l-2-5-5-5-15-6-41-11-16-8-4-5-4-4-4-8-2-11 1-8 2-8 6-11 8-8 13-7 11-3z" fill="#047FFC"/>
<path transform="translate(1858,504)" d="m0 0h27l4 9 13 33 11 29 8 20 6 16 13 33 4 12-8 1h-14l-6-2-11-31-2-7-15-1h-49l-3 11-10 27-4 3h-20l-2-1 1-6 11-29 8-20 7-18 6-17 4-9 6-17 14-35zm12 25-6 16-8 22-9 26v4h48l1-3-8-21-4-13-5-14-6-16z" fill="#047FFC"/>
<path transform="translate(543,504)" d="m0 0h28l3 5 14 21 14 22 3 4 4-1 20-30 9-13 5-8h28l-2 5-6 8-9 13-8 12-3 5-3 3-9 14-8 11 1 6 9 13 17 25 7 11 11 15 6 9v3h-26l-5-2-10-16-7-11-7-10-10-15-1-3-3-1-7 10-14 21-7 10-10 15-4 2h-24v-4l11-16 9-13 12-18 8-11 11-17-2-5-9-13-14-20-10-15-11-16-2-4z" fill="#047FFC"/>
<path transform="translate(1757,504)" d="m0 0h24l1 1v151l-2 1h-22l-2-1v-151z" fill="#047FFC"/>
<path transform="translate(783,504)" d="m0 0h25v151l-3 2h-20l-3-2v-150z" fill="#047FFC"/>
<path transform="translate(690,588)" d="m0 0h58l2 5v14l-4 2h-57v-20z" fill="#047FFC"/>
</svg>
