<?xml version="1.0" encoding="UTF-8"?>
<svg version="1.1" viewBox="0 0 2048 2048" width="1280" height="1280" xmlns="http://www.w3.org/2000/svg">
<path transform="translate(538,3)" d="m0 0h85l24 3 24 5 20 6 17 6 23 11 17 11 10 8 11 10 8 10 7 12 4 14v15l-6 26-24 95-17 67-7 28-6 14-7 10-10 10-14 10-15 8-25 9-18 4-24 3-49 2-27 3-26 5-25 7-18 8-11 7-10 8-7 7-8 13-8 21-6 23-4 25v39l3 13 5 10 9 10 10 9 10 7 20 12 19 11 17 9 33 15 28 12 4 1 16-8 29-14 40-17 20-8 29-11 38-13 54-16 35-9 50-11 43-8 51-7 40-4 45-3 28-1h62l47 2 58 5 48 6 36 6 36 7 41 9 41 11 36 12 22 10 20 11 12 8 12 9 13 11 14 14 10 13 9 16 4 11 2 9v12l-4 14-7 17-19 45-13 30-11 26-17 40-15 35-7 13-9 10-10 8-14 8-14 5-22 5-20 2h-19l-21-2-23-4-54-14-40-8-43-6-39-4-34-2h-66l-49 3-21 2 9 10 7 8 11 13 10 13 13 17 14 20 8 12 12 19 13 22 14 27 8 16 13 28 10 24 11 29 12 36 7 25 9 37 6 29 7 49 3 35 1 21v40l-2 29-6 42-7 34-9 33-12 36-11 28-12 27-15 29-14 23-10 15-12 17-14 18-11 13-9 11-15 16-24 24-8 7-15 13-16 13-19 14-20 14-18 11-16 10-24 13-16 8-23 11-26 11-36 13-21 7-29 8-41 9-41 7-30 4h-115l-53-8-38-8-33-9-32-11-32-13-34-16-24-13-23-14-19-13-18-13-18-14-10-8-10-9-12-11-26-26-9-11-10-11-10-13-9-12-14-20-12-19-14-24-10-19-9-20-12-29-12-35-8-28-8-38-5-35-1-9v-135l6-41 8-37 8-31 12-39 8-23 11-28 9-21 8-18 8-16 13-25 13-23 9-15 8-13 12-19 8-11 10-15 15-20 10-13 13-16 9-10 7-8 9-10 7-9 3-3-34-26-14-12-8-7-11-10-8-7-11-11-7-8-11-12-8-10-10-13-7-10-10-15-11-19-8-14-11-24-10-26-9-27-9-37-6-36-3-34v-65l3-39 5-35 5-26 9-38 10-33 12-30 10-23 7-15 12-22 15-23 18-27 9-12 12-13 8-9 24-24 6-7 8-7 16-13 15-11 13-9 15-10 20-12 16-9 17-9 24-11 23-9 33-11 39-10 33-7 30-5 36-4zm65 1123-17 14-11 10-8 7-10 9-4 3v2l-4 2-20 20v2h-2l-7 8-11 12-9 11-10 12-14 19-8 12-9 14-9 15-13 24-12 23-10 23-10 30-5 21-5 30-2 22 1 21 3 22 5 19 9 21 10 19 13 18 13 14 11 9 8 6 19 11 17 8 22 7 14 3 29 3h36l21-2 19-3 27-7 26-10 25-12 18-11 14-10 13-11 10-9 7-8 11-13 11-17 7-16 6-18 5-22 2-17v-27l-3-25-5-29-7-25-9-26-10-24-9-19-11-19-11-17-12-16-8-10-11-12-9-10-16-15-11-9-15-12-17-12-20-13-22-13-12-7z"/>
<path transform="translate(1834,717)" d="m0 0 28 2 21 4 26 8 21 9 16 9 16 11 10 8 12 11 13 13 8 10 10 14 12 21 7 15 8 24 4 18 2 12v58l-5 26-6 20-6 15-12 23-10 15-9 11-11 13-16 15-13 10-17 11-21 11-27 10-20 5-22 3h-43l-22-3-25-7-25-10-17-9-18-12-16-13-20-20-13-17-10-15-8-16-8-18-8-26-4-22-1-9v-41l4-25 6-21 6-17 12-25 10-15 8-11 11-13 16-16 10-8 14-10 20-12 23-10 26-8 20-4 10-1z" fill="#FEA201"/>
</svg>
